HIERARCHY
ROOT HipCenter
{
    OFFSET 0.0 0.0 -0.0
    CHANNELS 6 Xposition Yposition Zposition Zrotation Xrotation Yrotation
    JOINT Spine
    {
        OFFSET 0.0 12.224725723266602 0.0
        CHANNELS 3 Zrotation Xrotation Yrotation
        JOINT ShoulderCenter
        {
            OFFSET 0.0 33.62454605102539 0.0
            CHANNELS 3 Zrotation Xrotation Yrotation
            JOINT LeftShoulder
            {
                OFFSET 17.760719299316406 0.0 0.0
                CHANNELS 3 Zrotation Xrotation Yrotation
                JOINT LeftElbow
                {
                    OFFSET 29.747974395751953 0.0 0.0
                    CHANNELS 3 Zrotation Xrotation Yrotation
                    JOINT LeftWrist
                    {
                        OFFSET 29.700307846069336 0.0 0.0
                        CHANNELS 3 Zrotation Xrotation Yrotation
                        JOINT LeftHand
                        {
                            OFFSET 4.489670753479004 0.0 0.0
                            CHANNELS 3 Zrotation Xrotation Yrotation
                            End Site
                            {
                                OFFSET 1.7958682775497437 0.0 0.0
                            }
                        }
                    }
                }
            }
            JOINT RightShoulder
            {
                OFFSET -17.760719299316406 0.0 0.0
                CHANNELS 3 Zrotation Xrotation Yrotation
                JOINT RightElbow
                {
                    OFFSET -29.747974395751953 0.0 0.0
                    CHANNELS 3 Zrotation Xrotation Yrotation
                    JOINT RightWrist
                    {
                        OFFSET -29.700307846069336 0.0 0.0
                        CHANNELS 3 Zrotation Xrotation Yrotation
                        JOINT RightHand
                        {
                            OFFSET -4.489670753479004 0.0 0.0
                            CHANNELS 3 Zrotation Xrotation Yrotation
                            End Site
                            {
                                OFFSET -1.7958682775497437 0.0 0.0
                            }
                        }
                    }
                }
            }
            End Site
            {
                OFFSET 0.0 13.44981861114502 0.0
            }
        }
    }
    JOINT LeftHip
    {
        OFFSET 13.27971076965332 0.0 0.0
        CHANNELS 3 Zrotation Xrotation Yrotation
        JOINT LeftKnee
        {
            OFFSET 0.0 -42.08383560180664 0.0
            CHANNELS 3 Zrotation Xrotation Yrotation
            JOINT LeftAnkle
            {
                OFFSET 0.0 -43.70518493652344 0.0
                CHANNELS 3 Zrotation Xrotation Yrotation
                JOINT LeftFoot
                {
                    OFFSET 0.0 -12.591739654541016 0.0
                    CHANNELS 3 Zrotation Xrotation Yrotation
                    End Site
                    {
                        OFFSET 0.0 0.0 5.036695957183838
                    }
                }
            }
        }
    }
    JOINT RightHip
    {
        OFFSET -13.27971076965332 0.0 0.0
        CHANNELS 3 Zrotation Xrotation Yrotation
        JOINT RightKnee
        {
            OFFSET 0.0 -42.08383560180664 0.0
            CHANNELS 3 Zrotation Xrotation Yrotation
            JOINT RightAnkle
            {
                OFFSET 0.0 -43.70518493652344 0.0
                CHANNELS 3 Zrotation Xrotation Yrotation
                JOINT RightFoot
                {
                    OFFSET 0.0 -12.591739654541016 0.0
                    CHANNELS 3 Zrotation Xrotation Yrotation
                    End Site
                    {
                        OFFSET 0.0 0.0 5.036695957183838
                    }
                }
            }
        }
    }
}
MOTION
Frames: 9
Frame Time: 0.03333333333333333
122.5999984741211 -26.0 18.0 8.53077940459779 -1.4162550141179786 -94.77175068289448 0.14902575321419936 17.0935704127494 0.33631106079223255 9.677061836561585e-07 -2.6570466353002927e-06 4.741157135124031 114.22027051083985 -26.730266795432883 -150.70703299307687 -3.4827092758324915e-06 1.1061424214253576e-06 64.48710487742952 -179.9999725810158 -86.24697661250858 -140.98411703880873 -1.1927080055488192e-15 -8.276074308844047e-33 7.951386703658794e-16 -109.4746677253683 -16.429302886125974 155.56960143765494 5.27109273710681e-06 -7.522670135280834e-07 -70.96773974833178 -3.934968777373941e-06 6.290064495422248 -26.557034244686704 3.1805546814635168e-15 0.0 0.0 48.48830650696236 -71.54517380182571 87.37790528309756 49.97900677686499 41.362504686922165 -117.18241587576908 60.05553425773001 -40.90339529165551 112.74516164016289 0.0 0.0 -3.1805546814635168e-15 -39.91946142786378 -76.90175386388617 -85.65193462626914 -57.99114883926046 37.80894238614079 125.6421373343925 -56.942678946399525 -24.626888639525493 -119.50333068374769 7.95138670365879e-15 -3.1805546814635164e-15 2.2069531490250793e-31
122.69999694824219 -26.100000381469727 17.899999618530273 7.997459488904059 -1.406454434655651 -94.68604715409764 0.21604946472776376 16.711610109925285 0.5235953403411927 1.311800643294792e-06 1.0437282093219092e-06 4.398547875489121 113.34110700267036 -27.007071757591728 -150.9406372891841 -7.718646910029947e-07 -3.642820778684659e-06 63.15485376106677 -0.0035496338335574518 -89.92804006320537 35.016964090677085 3.67751635044219e-15 0.0 0.0 -108.9894259265662 -16.909895094665014 155.58291042843683 -3.828258046964438e-06 -1.0188008399956754e-06 -70.4262875888554 3.579776124381564e-06 7.9736386628716565 -27.45745125971006 -1.590277340731758e-15 3.9756933518293945e-16 3.180554681463516e-15 46.482073957607255 -71.28050476882943 83.29851610689693 48.65442687510754 42.517905655370896 -114.81587264402341 59.56349771606757 -41.24368344110957 111.10076009471855 0.0 0.0 0.0 -38.759557676262546 -76.65228876641835 -85.00493177276877 -58.29610646142655 37.15886625597932 126.37636994973052 -56.70174795137077 -24.078321923828312 -120.34443427272078 -3.1805546814635168e-15 -6.361109362927033e-15 -3.1805546814635168e-15
122.89999389648438 -26.100000381469727 17.899999618530273 7.471516332721124 -1.3966705246293019 -94.35848509772791 0.8748101944192581 16.576568098188456 0.3142312019192488 -4.080635566316629e-07 -1.8738572675479486e-07 3.519182140081124 112.39328562713025 -26.892276543809334 -150.92968173515447 1.9999888496586016e-06 4.328157131526833e-06 61.63877108044134 -179.99998739130467 -84.80766180988365 -143.47513689702578 -9.93923337957349e-16 6.896728590703373e-33 -7.951386703658792e-16 -108.1871102473923 -17.11679782011096 155.27564766952037 2.897754783324848e-06 1.5084595144894401e-06 -69.89654337282754 5.724768306839395e-07 8.708798910505875 -28.02645904895496 1.5902773407317584e-15 0.0 0.0 44.045873486877404 -71.16737500280976 79.69568871975201 47.93227413268337 43.09533726621696 -114.12150670237948 59.16389015155984 -40.780465649907065 110.11380744506756 -1.7655625192200634e-31 3.180554681463516e-15 6.361109362927032e-15 -37.76269743236457 -76.00668698058982 -83.6717859189689 -58.27036576734214 37.102212243274906 127.7625872214439 -57.5676241882507 -23.496554524506063 -121.70181403128585 7.95138670365879e-15 3.180554681463516e-15 -3.1805546814635168e-15
122.89999389648438 -26.19999885559082 17.80000114440918 6.546263114911857 -1.3994543948172047 -94.80452007063919 0.8609197668835312 17.29079095017655 0.32272115370559284 1.0378628004819764e-06 -1.3877105583862644e-06 3.4281158794067066 111.27780829671268 -25.621482431535494 -150.88886753473216 -1.8139677867067935e-06 -5.365957603042282e-06 60.24707762726922 2.2967485898916885e-05 -87.58263024258945 34.24036578424657 -1.4908850069360234e-15 -1.0345092886055059e-32 7.951386703658792e-16 -107.5965443854744 -17.298529144683098 154.7540733037903 5.996441623690775e-06 -2.2614692281362245e-06 -69.17096225627779 2.1983217729156036e-06 5.9261169736785515 -27.42903603369487 -1.5902773407317588e-15 -6.361109362927035e-15 -8.827812596100317e-32 42.16350248298298 -70.30734835817813 76.60190689714216 47.17651453963628 43.77073453368905 -113.188743548082 60.2355485798185 -40.08420881212764 111.24177968209524 -6.361109362927032e-15 -6.361109362927032e-15 -3.531125038440127e-31 -32.70953066972412 -75.60344386575139 -77.34901350542988 -57.77607178561056 37.58823631080689 126.82428536452818 -57.039988971635914 -22.775649870155764 -121.13086627847042 0.0 -3.1805546814635176e-15 0.0
123.0 -26.100000381469727 17.700000762939453 6.599923791968566 -1.4108621982242435 -94.36301031191805 1.035772292790977 16.469483188464707 0.3550921676696987 2.2707834607889032e-07 -7.551096255471272e-07 2.922398580182243 109.83388610018795 -25.052347744392026 -151.83726773160592 -3.788426816421039e-06 3.7367141113675142e-06 59.598150828715234 179.99995341302917 -89.68507221914388 -144.66796232699835 9.93923337957349e-16 -6.896728590703373e-33 -7.951386703658792e-16 -107.30197411297826 -16.99687497195983 154.56970588410863 2.4511125844948657e-07 -4.4612723055406516e-06 -68.60192545448 7.020764712936679e-08 8.051215839116617 -27.280238370227906 0.0 0.0 0.0 40.74664604838063 -70.64130816991145 74.85870935760617 47.12141547970427 43.507915197562646 -113.14907879162398 59.574291770181716 -39.87681780537757 110.76358416758194 -6.3611093629270335e-15 6.3611093629270335e-15 3.1805546814635168e-15 -33.80647862096468 -75.47290552489721 -78.8467663456781 -57.94003785159054 37.24604531167302 127.38717231007841 -57.13872036868914 -22.408995981263498 -122.00319029089532 -1.5902773407317588e-15 0.0 0.0
123.0 -26.100000381469727 17.600000381469727 6.132236849770161 -1.4121478327729764 -94.78549067802929 1.069134682129299 16.79738839741214 0.35345803355353805 -2.2826539286897084e-06 8.362517433053293e-07 2.6140805902402673 108.61769135553003 -23.225915118413187 -152.06784809648434 4.29570997391008e-07 4.471210467385156e-06 58.90625456991533 179.9999541609196 -86.681714697051 -145.157068808928 0.0 0.0 7.951386703658792e-16 -106.8138812576415 -17.715884601926376 154.08949368881554 2.795339662216451e-06 3.457894633381465e-06 -68.14918555035001 -5.643702324481339e-07 3.20465793373313 -26.627967193716007 -1.5902773407317584e-15 -6.3611093629270335e-15 -8.827812596100317e-32 40.42714474083577 -70.11095808148929 74.47105435103293 47.50427800878071 43.26334791948819 -113.60109907280602 59.40380180253249 -39.20830666102732 110.99944287321705 -6.361109362927032e-15 -3.180554681463516e-15 3.180554681463516e-15 -31.097009583514495 -75.36401174336454 -75.94814554152006 -57.76507946917445 37.24764642684253 126.59133268838593 -56.890335990256 -22.807325132346055 -121.67240840347664 6.3611093629270335e-15 0.0 0.0
123.09999084472656 -26.100000381469727 17.600000381469727 5.66365656351027 -1.8841477536630917 -94.854194679261 0.36661547364203373 17.213487594841908 0.30268878703678087 -6.328748638076565e-07 1.4048383470762545e-06 2.8965400926780265 108.30457443233142 -22.829773803463997 -152.12351980598183 2.2704052871217683e-06 2.0738739323071847e-08 58.64945625265975 179.99992360293598 -85.4054172972003 -144.25305860550307 0.0 0.0 0.0 -106.57366165022214 -17.350245321795832 152.93325422257033 4.166263937906887e-06 5.9069902867228995e-06 -66.95689123675449 3.515087333764431e-07 7.030511215947822 -26.931933402881768 1.5902773407317582e-15 0.0 0.0 38.982361447897915 -69.83696163562536 73.20081887766453 47.449135439217955 43.329381795808075 -113.7621122345802 59.47602929045664 -39.30723324842917 110.91641958701611 -8.827812596100317e-32 3.180554681463516e-15 3.180554681463516e-15 -30.349531648737674 -74.91690396376843 -73.91087076953197 -57.471768361216746 37.85805489488422 126.61857422747525 -57.29128268090886 -22.57781608243482 -121.43969531075295 3.1805546814635168e-15 0.0 0.0
123.09999084472656 -26.19999885559082 17.600000381469727 5.152039424981951 -1.8702943827735978 -95.23921276515566 0.6106502403196569 17.437968685524872 0.3527558236477357 -1.5982039517651092e-06 8.8532917509227e-07 1.640546522198588 107.35131355898294 -20.851054351394243 -152.86027860785478 2.0164475607866527e-07 -2.0096693540897482e-06 58.64638373299867 -179.999997354529 -81.11666351160287 -145.92552858657703 -1.3914926731402884e-15 9.655420026984722e-33 -7.951386703658791e-16 -106.81621160606397 -18.660640642871062 152.41839882906382 -7.325378313812713e-06 2.7247472553301687e-06 -66.66931504723 1.5484172806885055e-06 6.617231116143878 -26.64345758929615 -1.5902773407317582e-15 0.0 0.0 38.3132285616155 -69.20227630528245 71.6039235820341 46.96580706896915 43.84719730430351 -112.967377967567 59.55868211799031 -39.71861910337475 110.36776341167827 0.0 0.0 -6.361109362927035e-15 -28.034529211365474 -74.86763603907848 -71.57247807850393 -57.56808806951343 37.774664911881366 126.04379903161012 -56.890808714119764 -22.805593907124 -120.99177114222688 1.5902773407317584e-15 3.1805546814635168e-15 -3.1805546814635168e-15
123.19999694824219 -26.19999885559082 17.600000381469727 5.152074955329676 -2.3374034334993423 -95.23806138805038 0.1457683720388051 17.395263256894953 0.3518406079822605 8.974531852189095e-07 -9.678535815249395e-07 1.2664360569005004 106.66967372919403 -19.8831425852343 -153.27462019295945 -9.731225870300387e-07 -1.6204331594991553e-06 58.41686296378276 179.99999682027067 -82.09115278901575 -146.52467820317878 1.5902773407317584e-15 -3.1805546814635168e-15 4.4139062980501586e-32 -106.76194711596692 -18.95915190908783 151.90691536407596 3.7413672819375944e-06 2.607363629409125e-06 -66.30412698071873 1.5900262821300226e-06 4.119509524485574 -27.567231169427114 -1.5902773407317584e-15 -6.3611093629270335e-15 -8.827812596100317e-32 37.915084208305274 -69.23656442933634 71.914875264919 47.047172769598305 43.500405746299855 -113.98016621775807 59.84262789014128 -38.54868227383454 111.44859226009741 0.0 0.0 -3.1805546814635168e-15 -28.59893367014831 -74.85408189839103 -71.01432296449411 -57.200572211349716 38.45381865836532 125.43922856605215 -57.07093486496975 -23.025296813253835 -120.16022062642382 -6.3611093629270335e-15 0.0 0.0
